<svg width="100" height="34" viewBox="0 0 100 34" fill="none" xmlns="http://www.w3.org/2000/svg">
<g filter="url(#filter0_d_330_97)">
<path d="M98 8H28L16 30H86L98 8Z" fill="url(#paint0_linear_330_97)"/>
</g>
<path d="M98 8L86 30" stroke="url(#paint1_linear_330_97)" stroke-width="0.5" stroke-linecap="round"/>
<path d="M16 2H2V16" stroke="white" stroke-width="4" stroke-linecap="square" stroke-linejoin="round"/>
<path d="M46.5199 19.9091C46.5199 21.0426 46.2995 21.9988 45.8587 22.7777C45.4179 23.5533 44.8229 24.1416 44.0739 24.5426C43.3248 24.9403 42.4896 25.1392 41.5682 25.1392C40.6402 25.1392 39.8016 24.9387 39.0526 24.5376C38.3068 24.1333 37.7135 23.5433 37.2727 22.7678C36.8352 21.9889 36.6165 21.036 36.6165 19.9091C36.6165 18.7756 36.8352 17.821 37.2727 17.0455C37.7135 16.2666 38.3068 15.6783 39.0526 15.2805C39.8016 14.8795 40.6402 14.679 41.5682 14.679C42.4896 14.679 43.3248 14.8795 44.0739 15.2805C44.8229 15.6783 45.4179 16.2666 45.8587 17.0455C46.2995 17.821 46.5199 18.7756 46.5199 19.9091ZM43.6761 19.9091C43.6761 19.2992 43.5949 18.7855 43.4325 18.3679C43.2734 17.947 43.0365 17.6288 42.7216 17.4134C42.41 17.1946 42.0256 17.0852 41.5682 17.0852C41.1108 17.0852 40.7247 17.1946 40.4098 17.4134C40.0982 17.6288 39.8613 17.947 39.6989 18.3679C39.5398 18.7855 39.4602 19.2992 39.4602 19.9091C39.4602 20.5189 39.5398 21.0343 39.6989 21.4553C39.8613 21.8729 40.0982 22.1911 40.4098 22.4098C40.7247 22.6252 41.1108 22.733 41.5682 22.733C42.0256 22.733 42.41 22.6252 42.7216 22.4098C43.0365 22.1911 43.2734 21.8729 43.4325 21.4553C43.5949 21.0343 43.6761 20.5189 43.6761 19.9091ZM52.7275 18C52.7009 17.6686 52.5767 17.41 52.3546 17.2244C52.1358 17.0388 51.8027 16.946 51.3553 16.946C51.0703 16.946 50.8366 16.9808 50.6543 17.0504C50.4753 17.1167 50.3428 17.2079 50.2566 17.3239C50.1704 17.4399 50.1257 17.5724 50.1224 17.7216C50.1157 17.8442 50.1373 17.9553 50.187 18.0547C50.24 18.1508 50.3229 18.2386 50.4356 18.3182C50.5483 18.3944 50.6924 18.464 50.8681 18.527C51.0438 18.59 51.2526 18.6463 51.4945 18.696L52.3297 18.875C52.8932 18.9943 53.3754 19.1518 53.7765 19.3473C54.1775 19.5429 54.5056 19.7732 54.7608 20.0384C55.0161 20.3002 55.2033 20.5952 55.3226 20.9233C55.4453 21.2514 55.5082 21.6094 55.5116 21.9972C55.5082 22.6667 55.3409 23.2334 55.0094 23.6974C54.678 24.1615 54.204 24.5144 53.5875 24.7564C52.9744 24.9983 52.2369 25.1193 51.3752 25.1193C50.4902 25.1193 49.718 24.9884 49.0584 24.7266C48.4022 24.4647 47.8918 24.062 47.5272 23.5185C47.1659 22.9716 46.9836 22.2723 46.9803 21.4205H49.6053C49.6219 21.732 49.6998 21.9938 49.839 22.206C49.9782 22.4181 50.1737 22.5788 50.4256 22.6882C50.6808 22.7976 50.9841 22.8523 51.3354 22.8523C51.6304 22.8523 51.8773 22.8158 52.0762 22.7429C52.275 22.67 52.4259 22.5689 52.5286 22.4396C52.6313 22.3104 52.6844 22.1629 52.6877 21.9972C52.6844 21.8414 52.633 21.7055 52.5336 21.5895C52.4375 21.4702 52.2784 21.3641 52.0563 21.2713C51.8342 21.1752 51.5343 21.0857 51.1564 21.0028L50.1422 20.7841C49.2407 20.5885 48.5298 20.2621 48.0094 19.8047C47.4924 19.344 47.2355 18.7159 47.2388 17.9205C47.2355 17.2741 47.4079 16.709 47.7559 16.2251C48.1072 15.7379 48.5928 15.3584 49.2125 15.0866C49.8357 14.8149 50.5499 14.679 51.3553 14.679C52.1773 14.679 52.8882 14.8165 53.4881 15.0916C54.088 15.3667 54.5504 15.7545 54.8752 16.255C55.2033 16.7521 55.369 17.3338 55.3724 18H52.7275ZM58.7673 14.8182V25H56.003V14.8182H58.7673ZM62.1622 25H59.1792L62.54 14.8182H66.3184L69.6792 25H66.6962L64.469 17.6222H64.3894L62.1622 25ZM61.6053 20.983H67.2133V23.0511H61.6053V20.983ZM70.0998 25V14.8182H74.4947C75.2504 14.8182 75.9116 14.9557 76.4784 15.2308C77.0452 15.5059 77.486 15.902 77.8008 16.419C78.1157 16.9361 78.2731 17.5559 78.2731 18.2784C78.2731 19.0076 78.1107 19.6224 77.7859 20.1229C77.4644 20.6233 77.012 21.0012 76.4287 21.2564C75.8487 21.5116 75.1709 21.6392 74.3953 21.6392H71.7703V19.4915H73.8385C74.1633 19.4915 74.44 19.4517 74.6687 19.3722C74.9007 19.2893 75.0781 19.1584 75.2007 18.9794C75.3266 18.8004 75.3896 18.5668 75.3896 18.2784C75.3896 17.9867 75.3266 17.7498 75.2007 17.5675C75.0781 17.3819 74.9007 17.246 74.6687 17.1598C74.44 17.0703 74.1633 17.0256 73.8385 17.0256H72.864V25H70.0998ZM76.0658 20.3267L78.6112 25H75.6084L73.1226 20.3267H76.0658Z" fill="white"/>
<defs>
<filter id="filter0_d_330_97" x="14" y="8" width="86" height="26" filterUnits="userSpaceOnUse" color-interpolation-filters="sRGB">
<feFlood flood-opacity="0" result="BackgroundImageFix"/>
<feColorMatrix in="SourceAlpha" type="matrix" values="0 0 0 0 0 0 0 0 0 0 0 0 0 0 0 0 0 0 127 0" result="hardAlpha"/>
<feOffset dy="2"/>
<feGaussianBlur stdDeviation="1"/>
<feColorMatrix type="matrix" values="0 0 0 0 0 0 0 0 0 0 0 0 0 0 0 0 0 0 0.25 0"/>
<feBlend mode="normal" in2="BackgroundImageFix" result="effect1_dropShadow_330_97"/>
<feBlend mode="normal" in="SourceGraphic" in2="effect1_dropShadow_330_97" result="shape"/>
</filter>
<linearGradient id="paint0_linear_330_97" x1="16" y1="19" x2="98" y2="19" gradientUnits="userSpaceOnUse">
<stop stop-color="#0F2B68"/>
<stop offset="0.2" stop-color="#1E3A8A"/>
<stop offset="0.5" stop-color="#1E40AF"/>
<stop offset="0.8" stop-color="#2563EB"/>
<stop offset="1" stop-color="#3B82F6"/>
</linearGradient>
<linearGradient id="paint1_linear_330_97" x1="16" y1="19" x2="98" y2="19" gradientUnits="userSpaceOnUse">
<stop stop-color="white" stop-opacity="0.3"/>
<stop offset="1" stop-color="white" stop-opacity="0"/>
</linearGradient>
</defs>
</svg>

